<svg width="1080" height="94" viewBox="0 0 1080 94" fill="none" xmlns="http://www.w3.org/2000/svg">
<path d="M26.1245 92V17.888H0.1405V2.39999H71.3085V17.888H45.3245V92H26.1245ZM67.9975 92L100.638 2.39999H122.654L155.294 92H134.942L111.518 24.032L88.0935 92H67.9975ZM82.2055 72.416L87.3255 57.568H134.302L139.294 72.416H82.2055ZM178.941 92V61.28L148.349 2.39999H170.109L190.461 45.408H186.877L207.101 2.39999H228.605L198.141 61.28V92H178.941ZM274.867 93.536C266.077 93.536 258.355 91.5733 251.699 87.648C245.043 83.7227 239.795 78.304 235.955 71.392C232.2 64.3947 230.323 56.3307 230.323 47.2C230.323 38.0693 232.2 30.048 235.955 23.136C239.795 16.1387 245.043 10.6773 251.699 6.752C258.355 2.82667 266.077 0.863998 274.867 0.863998C283.656 0.863998 291.421 2.82667 298.163 6.752C304.904 10.6773 310.109 16.1387 313.779 23.136C317.533 30.048 319.411 38.0693 319.411 47.2C319.411 56.3307 317.533 64.3947 313.779 71.392C310.109 78.304 304.904 83.7227 298.163 87.648C291.421 91.5733 283.656 93.536 274.867 93.536ZM274.867 76.256C280.072 76.256 284.509 75.0613 288.179 72.672C291.933 70.2827 294.835 66.9547 296.882 62.688C298.931 58.336 299.955 53.1733 299.955 47.2C299.955 41.2267 298.931 36.1067 296.882 31.84C294.835 27.488 291.933 24.16 288.179 21.856C284.509 19.4667 280.072 18.272 274.867 18.272C269.832 18.272 265.437 19.4667 261.683 21.856C257.928 24.16 255.027 27.488 252.979 31.84C250.931 36.1067 249.907 41.2267 249.907 47.2C249.907 53.1733 250.931 58.336 252.979 62.688C255.027 66.9547 257.928 70.2827 261.683 72.672C265.437 75.0613 269.832 76.256 274.867 76.256ZM333.764 92V2.39999H352.964L392.26 61.28V2.39999H411.46V92H392.26L352.964 33.376V92H333.764ZM475.434 92L452.266 2.39999H472.746L487.21 70.496L504.618 2.39999H525.866L542.634 70.368L557.226 2.39999H577.962L554.026 92H530.986L514.986 29.408L498.474 92H475.434ZM589.764 92V2.39999H608.964V92H589.764ZM626.139 92V2.39999H645.339V77.152H683.995V92H626.139ZM698.889 92V2.39999H718.089V77.152H756.745V92H698.889ZM771.639 92V2.39999H790.839V92H771.639ZM801.998 92L834.638 2.39999H856.654L889.294 92H868.942L845.518 24.032L822.094 92H801.998ZM816.206 72.416L821.326 57.568H868.302L873.294 72.416H816.206ZM900.389 92V2.39999H923.429L949.541 56.288L975.397 2.39999H998.309V92H979.109V34.784L957.093 79.456H941.733L919.589 34.784V92H900.389ZM1047 93.536C1040.6 93.536 1034.8 92.4693 1029.59 90.336C1024.47 88.1173 1020.42 84.8747 1017.43 80.608C1014.45 76.3413 1012.83 71.0933 1012.57 64.864H1033.05C1033.13 67.3387 1033.77 69.5147 1034.97 71.392C1036.16 73.2693 1037.79 74.7627 1039.83 75.872C1041.88 76.896 1044.27 77.408 1047 77.408C1049.31 77.408 1051.31 77.0667 1053.02 76.384C1054.81 75.616 1056.22 74.5493 1057.24 73.184C1058.27 71.7333 1058.78 69.9413 1058.78 67.808C1058.78 65.5893 1058.18 63.712 1056.99 62.176C1055.79 60.5547 1054.17 59.1893 1052.12 58.08C1050.07 56.8853 1047.68 55.8187 1044.95 54.88C1042.31 53.856 1039.45 52.8747 1036.38 51.936C1029.29 49.632 1023.83 46.5173 1019.99 42.592C1016.24 38.6667 1014.36 33.4187 1014.36 26.848C1014.36 21.3867 1015.68 16.736 1018.33 12.896C1021.06 8.97066 1024.77 5.984 1029.47 3.936C1034.16 1.888 1039.49 0.863998 1045.47 0.863998C1051.61 0.863998 1057.03 1.93066 1061.72 4.064C1066.41 6.11199 1070.13 9.14133 1072.86 13.152C1075.59 17.0773 1077.04 21.7707 1077.21 27.232H1056.6C1056.52 25.3547 1055.96 23.648 1054.94 22.112C1054 20.576 1052.68 19.3387 1050.97 18.4C1049.35 17.4613 1047.43 16.992 1045.21 16.992C1043.25 16.9067 1041.45 17.2053 1039.83 17.888C1038.3 18.4853 1037.02 19.4667 1035.99 20.832C1035.05 22.112 1034.59 23.7333 1034.59 25.696C1034.59 27.5733 1035.05 29.2373 1035.99 30.688C1037.02 32.0533 1038.38 33.248 1040.09 34.272C1041.88 35.2107 1043.93 36.1067 1046.23 36.96C1048.62 37.8133 1051.23 38.6667 1054.04 39.52C1058.56 41.056 1062.7 42.8907 1066.46 45.024C1070.3 47.072 1073.37 49.8027 1075.67 53.216C1078.06 56.544 1079.26 60.9813 1079.26 66.528C1079.26 71.392 1077.98 75.872 1075.42 79.968C1072.94 84.064 1069.32 87.3493 1064.54 89.824C1059.84 92.2987 1054 93.536 1047 93.536Z" fill="#FFE9D9"/>
</svg>
