<svg width="196" height="100" viewBox="0 0 196 100" fill="none" xmlns="http://www.w3.org/2000/svg">
<path d="M146.597 38C146.129 38 145.75 38.3789 145.75 38.8461V44.7806H161.426L154.287 38.0005L146.597 38Z" fill="#080808" fill-opacity="0.9"/>
<path d="M162.001 46.5753C162.001 46.107 161.625 45.7297 161.155 45.7297H155.222V61.4063L161.998 54.2643L162.001 46.5753Z" fill="#080808" fill-opacity="0.9"/>
<path d="M153.423 61.9749C153.889 61.9749 154.268 61.5954 154.268 61.1271V55.1948H138.592L145.732 61.9738L153.423 61.9749Z" fill="#080808" fill-opacity="0.9"/>
<path d="M138.019 53.3995C138.019 53.8673 138.397 54.2484 138.866 54.2484H144.798V38.5707L138.02 45.7106L138.019 53.3995Z" fill="#080808" fill-opacity="0.9"/>
<path d="M66.1659 40.8617V48.1013H56.0798V40.8617L52.4062 40.8584V59.1127H56.0798V51.2706H66.1659V59.1127H69.8455V40.8617H66.1659Z" fill="#080808" fill-opacity="0.9"/>
<path d="M115.037 40.8618V59.1085H131.154L129.112 55.8962H118.721V51.2707H128.783V48.1767H118.721V43.9989H129.095L131.095 40.8618H115.037Z" fill="#080808" fill-opacity="0.9"/>
<path d="M38.7513 40.8575C34.93 40.8575 33 43.1806 33 46.5609V53.3747C33 57.2865 35.4872 59.1129 38.7322 59.1129L50.2577 59.1118L48.121 55.7752H39.4442C37.6009 55.7752 36.7978 55.109 36.7978 53.046V46.864C36.7978 44.8697 37.4739 44.0917 39.4933 44.0917H48.2115L50.2631 40.8575H38.7513Z" fill="#080808" fill-opacity="0.9"/>
<path d="M98.9138 40.8532C96.7068 40.8532 94.4448 42.1797 94.4448 45.5915V46.4682C94.4448 50.0251 96.6213 51.3821 98.7988 51.3913H106.442C107.236 51.3913 107.881 51.5233 107.881 52.865L107.88 54.415C107.859 55.6204 107.258 55.8963 106.415 55.8963H96.3596L94.2998 59.1086H106.651C109.63 59.1086 111.652 57.6268 111.652 54.204V52.9462C111.652 49.6369 109.773 48.0733 106.86 48.0733H99.562C98.753 48.0733 98.1892 47.8525 98.1892 46.6541V45.392C98.1892 44.3714 98.5758 43.999 99.5184 43.999L109.094 43.9952L111.096 40.8489L98.9138 40.8532Z" fill="#080808" fill-opacity="0.9"/>
<path d="M80.5183 40.8622L71.8633 59.1121H75.9539L77.6397 55.3431H87.0448L88.7251 59.1121H92.8337L84.1586 40.8622H80.5183ZM82.3332 44.6513L85.659 52.2366H79.0288L82.3332 44.6513Z" fill="#080808" fill-opacity="0.9"/>
</svg>
