<svg width="196" height="100" viewBox="0 0 196 100" fill="none" xmlns="http://www.w3.org/2000/svg">
<path d="M49 56.5131V36.4246H52.6199V56.5129L49 56.5131ZM61.8862 41.9396C57.2449 41.9396 54.0331 45.4183 54.0331 49.3999C54.0331 53.8438 57.5272 56.9049 61.9222 56.9049C66.0933 56.9049 69.7128 53.9 69.7128 49.3904C69.7128 45.5982 66.7137 41.9396 61.8862 41.9396ZM61.8435 45.3438C64.2724 45.3438 66.0601 47.1868 66.0601 49.4127C66.0601 51.7728 64.0891 53.4944 61.909 53.4944C59.3332 53.4944 57.7121 51.5042 57.7121 49.4191C57.7121 47.1336 59.5423 45.3438 61.8435 45.3438ZM78.8079 41.9396C74.1667 41.9396 70.9549 45.4183 70.9549 49.3999C70.9549 53.8438 74.449 56.9049 78.844 56.9049C83.0151 56.9049 86.6346 53.9 86.6346 49.3904C86.6346 46.7348 85.4549 45.5564 85.4549 45.5564L86.4583 45.221V42.357H81.3169C81.3169 42.357 80.2024 41.9396 78.8079 41.9396ZM78.7653 45.3438C81.1942 45.3438 82.982 47.1868 82.982 49.4127C82.982 51.7728 81.0109 53.4944 78.8308 53.4944C76.255 53.4944 74.6338 51.5042 74.6338 49.4191C74.6338 47.1336 76.4641 45.3438 78.7653 45.3438ZM82.9564 57.4949C82.9564 59.855 80.9853 61.5894 78.8052 61.5894C76.2294 61.5894 74.6017 59.5801 74.6017 57.4949H70.9293C70.9293 61.9388 74.4234 65 78.8184 65C82.9895 65 86.609 62.0047 86.609 57.4949H82.9564ZM88.0845 56.5131V42.357H91.7044V56.513L88.0845 56.5131ZM95.2195 56.5131V45.5279H93.2783V42.357H95.2195V38.0101H98.8393V42.357H100.833V45.5279H98.8394V56.513L95.2195 56.5131Z" fill="#080808" fill-opacity="0.9"/>
<path d="M89.8872 40.6734C91.211 40.6734 92.2842 39.6272 92.2842 38.3367C92.2842 37.0462 91.211 36 89.8872 36C88.5633 36 87.4901 37.0462 87.4901 38.3367C87.4901 39.6272 88.5633 40.6734 89.8872 40.6734Z" fill="#080808" fill-opacity="0.9"/>
<path d="M108.971 41.93C104.308 41.93 101.302 45.4105 101.302 49.5278C101.302 53.7825 104.318 56.9145 109.047 56.9145C113.458 56.9145 115.627 54.2296 115.627 54.2296L113.208 51.8675C113.208 51.8675 111.38 53.7885 109.093 53.7885C107.185 53.7885 105.66 52.7508 105.128 50.8479H116.408V49.8761C116.408 45.999 114.106 41.93 108.971 41.93ZM108.857 45.037C110.524 45.037 112.229 45.9065 112.611 47.984H105.03C105.33 46.5237 106.641 45.037 108.857 45.037ZM125.462 56.9164C120.786 56.9164 117.6 53.4443 117.6 49.3506C117.6 45.1259 121.201 41.9274 125.447 41.9274C129.552 41.9274 131.654 44.7525 131.654 44.7525L129.129 47.2029C129.129 47.2029 127.666 45.3606 125.43 45.3606C122.952 45.3606 121.258 47.2083 121.258 49.4048C121.258 51.724 123.06 53.5034 125.402 53.5034C127.674 53.5034 129.125 51.6639 129.125 51.6639L131.676 54.1131C131.676 54.1131 129.595 56.9164 125.462 56.9164ZM132.993 56.5232V36.3735H136.612V43.7766C136.612 43.7766 137.999 41.9274 141.014 41.9274C144.804 41.9274 147 44.6742 147 48.1872V56.5232H143.38V48.7205C143.38 46.3604 141.873 45.3812 140.203 45.3812C138.3 45.3812 136.612 46.4367 136.612 48.9031V56.5232H132.993Z" fill="#080808" fill-opacity="0.9"/>
</svg>
