<svg width="196" height="100" viewBox="0 0 196 100" fill="none" xmlns="http://www.w3.org/2000/svg">
<path d="M90.2159 50.7083C90.2159 55.823 86.2146 59.5919 81.3042 59.5919C76.3938 59.5919 72.3926 55.823 72.3926 50.7083C72.3926 45.5576 76.3938 41.8247 81.3042 41.8247C86.2146 41.8247 90.2159 45.5576 90.2159 50.7083ZM86.3148 50.7083C86.3148 47.5121 83.9957 45.3253 81.3042 45.3253C78.6127 45.3253 76.2937 47.5121 76.2937 50.7083C76.2937 53.8724 78.6127 56.0913 81.3042 56.0913C83.9957 56.0913 86.3148 53.8684 86.3148 50.7083Z" fill="#080808" fill-opacity="0.9"/>
<path d="M109.441 50.7082C109.441 55.8229 105.44 59.5918 100.53 59.5918C95.6194 59.5918 91.6182 55.8229 91.6182 50.7082C91.6182 45.5615 95.6194 41.8246 100.53 41.8246C105.44 41.8246 109.441 45.5575 109.441 50.7082ZM105.54 50.7082C105.54 47.512 103.221 45.3252 100.53 45.3252C97.8383 45.3252 95.5193 47.512 95.5193 50.7082C95.5193 53.8723 97.8383 56.0912 100.53 56.0912C103.221 56.0912 105.54 53.8683 105.54 50.7082Z" fill="#080808" fill-opacity="0.9"/>
<path d="M127.865 42.3613V58.3101C127.865 64.8707 123.996 67.5502 119.422 67.5502C115.117 67.5502 112.525 64.6704 111.548 62.3153L114.945 60.9015C115.549 62.3474 117.031 64.0536 119.418 64.0536C122.346 64.0536 124.161 62.2473 124.161 58.8468V57.5691H124.024C123.151 58.6466 121.469 59.5878 119.346 59.5878C114.905 59.5878 110.835 55.7187 110.835 50.7402C110.835 45.7257 114.905 41.8246 119.346 41.8246C121.465 41.8246 123.147 42.7658 124.024 43.8112H124.161V42.3653H127.865V42.3613ZM124.437 50.7402C124.437 47.6121 122.35 45.3252 119.695 45.3252C117.003 45.3252 114.748 47.6121 114.748 50.7402C114.748 53.8363 117.003 56.0912 119.695 56.0912C122.35 56.0912 124.437 53.8363 124.437 50.7402Z" fill="#080808" fill-opacity="0.9"/>
<path d="M133.974 33.0134V59.0474H130.169V33.0134H133.974Z" fill="#080808" fill-opacity="0.9"/>
<path d="M148.802 53.6327L151.83 55.6513C150.853 57.0972 148.498 59.5885 144.429 59.5885C139.382 59.5885 135.613 55.6874 135.613 50.7049C135.613 45.422 139.414 41.8213 143.992 41.8213C148.602 41.8213 150.857 45.4901 151.594 47.4727L151.998 48.482L140.123 53.4004C141.032 55.1827 142.446 56.0919 144.429 56.0919C146.415 56.0919 147.793 55.1146 148.802 53.6327ZM139.482 50.4365L147.42 47.1402C146.984 46.0308 145.67 45.2578 144.124 45.2578C142.142 45.2578 139.382 47.0081 139.482 50.4365V50.4365Z" fill="#080808" fill-opacity="0.9"/>
<path d="M57.9903 48.3974V44.6285H70.6909C70.815 45.2853 70.8791 46.0624 70.8791 46.9035C70.8791 49.7312 70.1061 53.2277 67.6148 55.719C65.1917 58.2423 62.0956 59.588 57.9943 59.588C50.3923 59.588 44 53.3959 44 45.794C44 38.1921 50.3923 32 57.9943 32C62.1998 32 65.1957 33.6502 67.4466 35.801L64.7871 38.4604C63.173 36.9465 60.9862 35.7689 57.9903 35.7689C52.439 35.7689 48.0974 40.2428 48.0974 45.794C48.0974 51.3453 52.439 55.8191 57.9903 55.8191C61.591 55.8191 63.6416 54.3732 64.9554 53.0595C66.0208 51.9941 66.7217 50.4721 66.998 48.3934L57.9903 48.3974V48.3974Z" fill="#080808" fill-opacity="0.9"/>
</svg>
