<svg width="196" height="100" viewBox="0 0 196 100" fill="none" xmlns="http://www.w3.org/2000/svg">
<path d="M39.7306 44.427L39 34H49.427V43.9415L39.7306 44.427Z" fill="#080808" fill-opacity="0.9"/>
<path opacity="0.5" d="M52.0955 34.4856L62.7815 35.2162V43.9462H51.5869L52.0955 34.4856Z" fill="#080808" fill-opacity="0.9"/>
<path opacity="0.5" d="M39.7305 46.984V54.743L50.1528 55.9545V46.984H39.7305Z" fill="#080808" fill-opacity="0.9"/>
<path d="M52.543 47.2383L52.5753 55.4088L61.7261 55.0851L62.1238 46.9331L52.543 47.2383Z" fill="#080808" fill-opacity="0.9"/>
<path d="M49.4274 58.3727V66.6126H39.9668L40.6974 57.8826L49.4274 58.3727Z" fill="#080808" fill-opacity="0.9"/>
<path d="M78.3124 62.2477C78.3679 62.7748 78.0951 63.2788 77.6234 63.5193C77.3737 63.621 77.1102 63.6765 76.8374 63.6765C76.5877 63.6672 76.3472 63.6117 76.116 63.5193C75.649 63.2742 75.3762 62.7748 75.4271 62.2477V49.6798H73.8318C73.2261 49.7353 72.6943 49.2914 72.6388 48.6857C72.6296 48.6117 72.6342 48.5331 72.6435 48.4591C72.5695 47.858 72.9949 47.3123 73.596 47.243C73.6746 47.2337 73.7532 47.2337 73.8318 47.2384H75.4456C75.4456 44.857 75.4456 44.0108 75.9773 43.0722C76.7264 41.6619 78.2939 41.1301 80.2128 41.1301C80.7122 41.1301 81.8405 41.1301 81.8405 42.3508C81.8405 43.4467 80.9342 43.5438 80.4302 43.5716C79.584 43.6363 79.2095 43.664 78.8349 43.997C78.3032 44.4224 78.3032 44.8432 78.3032 47.2569H80.6151C81.0405 47.2569 81.8081 47.3493 81.8081 48.4776C81.8636 49.0879 81.4104 49.6289 80.8001 49.6798C80.7307 49.6844 80.6614 49.6844 80.5966 49.6798H78.3078L78.3124 62.2477ZM94.9586 62.391C94.9309 62.7332 94.8661 63.6626 93.687 63.6626C93.1876 63.6904 92.7206 63.4222 92.494 62.9736C92.4016 62.7239 92.3692 62.5945 92.3692 61.4709C91.1485 62.9968 89.2804 63.8568 87.3245 63.7875C84.0646 63.7875 82.0624 61.7853 82.0624 58.8075C82.0624 55.0806 85.1327 54.4841 86.8251 54.1465L89.4885 53.5824C90.552 53.3605 91.1161 53.2402 91.3982 53.157C92.0548 52.972 92.2767 52.7316 92.2767 51.9363C92.2767 49.2729 89.581 49.2729 89.0168 49.2729C86.2933 49.2729 85.8217 50.6185 85.5396 51.4693C85.4471 51.8947 85.2899 52.4727 84.2218 52.4727C83.0612 52.4727 82.7514 51.8161 82.7514 51.2519C82.8208 50.6 83.0473 49.9804 83.408 49.4347C84.6796 47.525 86.8528 46.9609 89.0122 46.9609C90.8294 46.9609 92.7067 47.3031 93.8674 48.6579C94.9309 49.9295 94.9309 51.5109 94.9309 53.0414L94.9586 62.391ZM88.5359 56.0377C87.9949 56.1395 87.4586 56.2782 86.9407 56.4631C85.8309 56.7128 85.0449 57.707 85.0587 58.8445C85.0587 60.5692 86.4043 61.4431 87.9718 61.4431C89.3128 61.4477 90.5843 60.8328 91.4167 59.7831C92.2305 58.6549 92.2628 57.1798 92.2952 55.0852C91.6155 55.3673 90.9034 55.5661 90.1774 55.6817L88.5359 56.0377ZM108.414 58.4838C108.636 57.8919 108.914 57.2631 109.76 57.2631C110.139 57.2631 111.263 57.485 111.263 58.5809C111.207 59.2514 110.985 59.8987 110.611 60.4582C110.111 61.3368 108.669 63.7782 104.22 63.7782C98.5144 63.7782 96.6695 59.2375 96.6695 55.3025C96.651 54.0679 96.8405 52.838 97.2336 51.6681C98.9306 46.9054 103.217 46.9054 104.378 46.9054C108.012 46.9054 109.464 48.4406 110.31 49.8185C110.967 50.8543 110.967 51.2288 110.967 51.4508C110.939 52.2368 110.282 52.8565 109.492 52.8333C109.473 52.8333 109.45 52.8333 109.432 52.8287C108.553 52.8287 108.271 52.2368 107.929 51.5109C107.291 50.0775 105.82 49.1943 104.253 49.3053C100.933 49.3053 99.6473 52.1582 99.6473 55.1962C99.6473 57.8919 100.461 61.3368 104.253 61.3368C107.124 61.3368 107.943 59.4872 108.414 58.4838ZM114.777 49.6798H113.117C112.506 49.726 111.97 49.2683 111.924 48.6579C111.919 48.5932 111.919 48.5238 111.928 48.4591C111.854 47.858 112.28 47.3123 112.881 47.243C112.96 47.2337 113.038 47.2337 113.117 47.2384H114.814V43.5716C114.814 43.1462 114.939 42.226 116.224 42.226C117.51 42.226 117.667 43.1323 117.667 43.5716V47.2384H119.609C120.205 47.1829 120.732 47.6175 120.793 48.214C120.802 48.2926 120.797 48.3758 120.788 48.4591C120.848 49.0694 120.4 49.6151 119.785 49.6752C119.724 49.6798 119.664 49.6798 119.609 49.6798H117.667V57.6422C117.667 59.5242 117.695 59.76 117.792 60.116C118.014 61.0223 118.605 61.1796 119.452 61.2443C120.205 61.2767 120.987 61.3368 120.987 62.4373C120.987 63.5331 119.983 63.6672 119.137 63.6672C114.781 63.6672 114.781 61.3136 114.781 58.8768V49.6798H114.777ZM136.523 62.2754C136.56 62.7841 136.287 63.2649 135.834 63.4961C135.372 63.6857 134.854 63.6857 134.392 63.4961C133.735 63.154 133.735 62.65 133.735 61.3784C132.389 63.1632 131.039 63.7597 128.75 63.7597C128.001 63.7597 125.99 63.695 124.584 62.1645C123.239 60.6617 123.239 58.6549 123.239 57.1798V48.4914C123.271 47.6869 123.951 47.0626 124.755 47.0996C125.5 47.132 126.101 47.7192 126.147 48.4637V56.2597C126.147 58.3774 126.24 59.2236 126.646 59.9866C127.368 61.3044 128.843 61.3044 129.213 61.3044C131.247 61.3784 133.037 59.9773 133.448 57.9844C133.606 57.1151 133.661 56.2319 133.606 55.3534V48.4914C133.647 47.6869 134.336 47.0719 135.141 47.1135C135.885 47.1551 136.477 47.747 136.519 48.4914L136.523 62.2754ZM151.348 62.391C151.32 62.7332 151.255 63.6626 150.076 63.6626C149.577 63.6904 149.11 63.4222 148.883 62.9736C148.791 62.7239 148.758 62.5945 148.758 61.4709C147.537 62.9968 145.665 63.8568 143.713 63.7875C140.454 63.7875 138.451 61.7853 138.451 58.8075C138.451 55.0806 141.522 54.4841 143.214 54.1465L145.877 53.5824C146.941 53.3605 147.505 53.2402 147.787 53.157C148.444 52.972 148.666 52.7316 148.666 51.9363C148.666 49.2729 145.97 49.2729 145.406 49.2729C142.682 49.2729 142.211 50.6185 141.929 51.4693C141.836 51.8947 141.679 52.4727 140.611 52.4727C139.45 52.4727 139.14 51.8161 139.14 51.2519C139.21 50.6 139.436 49.9804 139.797 49.4347C141.069 47.525 143.242 46.9609 145.401 46.9609C147.218 46.9609 149.1 47.3031 150.256 48.6579C151.32 49.9295 151.32 51.5109 151.32 53.0414L151.348 62.391ZM144.939 56.0377C144.398 56.1395 143.861 56.2782 143.344 56.4631C142.234 56.7128 141.448 57.707 141.462 58.8445C141.462 60.5692 142.807 61.4431 144.375 61.4431C145.716 61.4477 146.987 60.8328 147.819 59.7831C148.633 58.6549 148.666 57.1798 148.698 55.0852C148.018 55.3673 147.306 55.5661 146.58 55.6817L144.939 56.0377ZM157.368 62.2477C157.368 63.043 156.721 63.6857 155.925 63.6857C155.13 63.6857 154.487 63.043 154.487 62.2477V42.5404C154.45 41.8145 155.005 41.1995 155.731 41.1579C155.796 41.1532 155.865 41.1579 155.93 41.1625C156.642 41.0793 157.285 41.5925 157.363 42.3046C157.373 42.3832 157.373 42.4618 157.368 42.5404V62.2477V62.2477Z" fill="#080808" fill-opacity="0.9"/>
</svg>
