<svg width="196" height="100" viewBox="0 0 196 100" fill="none" xmlns="http://www.w3.org/2000/svg">
<path d="M100.974 41.5425C100.974 42.7678 99.9773 43.7548 98.7402 43.7548C97.5032 43.7548 96.5066 42.7678 96.5066 41.5425C96.5066 40.3173 97.4688 39.3303 98.7402 39.3303C100.012 39.3644 100.974 40.3514 100.974 41.5425ZM91.7645 46.001V46.5455C91.7645 46.5455 90.6992 45.1842 88.4312 45.1842C84.6856 45.1842 81.7647 48.009 81.7647 51.9229C81.7647 55.8028 84.6513 58.6617 88.4312 58.6617C90.7336 58.6617 91.7645 57.2663 91.7645 57.2663V57.8448C91.7645 58.1171 91.9707 58.3213 92.2456 58.3213H95.029V45.5245H92.2456C91.9707 45.5245 91.7645 45.7628 91.7645 46.001V46.001ZM91.7645 54.2032C91.249 54.952 90.2181 55.5986 88.981 55.5986C86.7818 55.5986 85.098 54.2372 85.098 51.9229C85.098 49.6086 86.7818 48.2472 88.981 48.2472C90.1838 48.2472 91.2834 48.9279 91.7645 49.6426V54.2032ZM97.0908 45.5245H100.39V58.3213H97.0908V45.5245ZM146.368 45.1842C144.1 45.1842 143.035 46.5455 143.035 46.5455V39.3644H139.736V58.3213H142.519C142.794 58.3213 143 58.0831 143 57.8448V57.2663C143 57.2663 144.066 58.6617 146.334 58.6617C150.079 58.6617 153 55.8028 153 51.9229C153 48.043 150.079 45.1842 146.368 45.1842V45.1842ZM145.818 55.5646C144.547 55.5646 143.55 54.9179 143.035 54.1692V49.6086C143.55 48.9279 144.65 48.2132 145.818 48.2132C148.017 48.2132 149.701 49.5746 149.701 51.8889C149.701 54.2032 148.017 55.5646 145.818 55.5646V55.5646ZM138.018 50.7317V58.3554H134.719V51.1061C134.719 48.996 134.031 48.1451 132.176 48.1451C131.179 48.1451 130.148 48.6557 129.495 49.4044V58.3213H126.197V45.5245H128.808C129.083 45.5245 129.289 45.7628 129.289 46.001V46.5455C130.251 45.5586 131.523 45.1842 132.794 45.1842C134.238 45.1842 135.44 45.5926 136.402 46.4094C137.571 47.3624 138.018 48.5876 138.018 50.7317V50.7317ZM118.19 45.1842C115.922 45.1842 114.857 46.5455 114.857 46.5455V39.3644H111.558V58.3213H114.341C114.616 58.3213 114.822 58.0831 114.822 57.8448V57.2663C114.822 57.2663 115.888 58.6617 118.156 58.6617C121.901 58.6617 124.822 55.8028 124.822 51.9229C124.856 48.043 121.936 45.1842 118.19 45.1842V45.1842ZM117.64 55.5646C116.369 55.5646 115.372 54.9179 114.857 54.1692V49.6086C115.372 48.9279 116.472 48.2132 117.64 48.2132C119.839 48.2132 121.523 49.5746 121.523 51.8889C121.523 54.2032 119.839 55.5646 117.64 55.5646V55.5646ZM108.706 45.1842C109.702 45.1842 110.218 45.3544 110.218 45.3544V48.3834C110.218 48.3834 107.469 47.4645 105.75 49.4044V58.3554H102.451V45.5245H105.235C105.51 45.5245 105.716 45.7628 105.716 46.001V46.5455C106.335 45.8308 107.675 45.1842 108.706 45.1842V45.1842ZM74.4453 57.1642C74.2735 56.7558 74.1017 56.3133 73.9299 55.9389C73.655 55.3263 73.3801 54.7477 73.1395 54.2032L73.1052 54.1692C70.7341 49.0641 68.1912 43.8909 65.5109 38.7858L65.4078 38.5816C65.1329 38.0711 64.858 37.5265 64.5831 36.982C64.2394 36.3694 63.8958 35.7227 63.346 35.1101C62.2463 33.7487 60.6656 33 58.9818 33C57.2637 33 55.7173 33.7487 54.5833 35.042C54.0679 35.6547 53.6899 36.3013 53.3462 36.9139C53.0713 37.4585 52.7964 38.003 52.5215 38.5135L52.4184 38.7177C49.7724 43.8228 47.1952 48.996 44.8241 54.1011L44.7898 54.1692C44.5492 54.7137 44.2743 55.2923 43.9994 55.9049C43.8276 56.2793 43.6558 56.6877 43.484 57.1301C43.0372 58.3894 42.8998 59.5806 43.0716 60.8058C43.4496 63.3584 45.1678 65.5025 47.5388 66.4555C48.4323 66.8298 49.3601 67 50.3223 67C50.5972 67 50.9408 66.966 51.2157 66.9319C52.3497 66.7958 53.5181 66.4214 54.652 65.7748C56.0609 64.992 57.4011 63.8689 58.9131 62.2352C60.4251 63.8689 61.7996 64.992 63.1742 65.7748C64.3082 66.4214 65.4765 66.7958 66.6105 66.9319C66.8854 66.966 67.229 67 67.5039 67C68.4661 67 69.4283 66.8298 70.2874 66.4555C72.6928 65.5025 74.3766 63.3243 74.7546 60.8058C75.0295 59.6146 74.8921 58.4234 74.4453 57.1642ZM58.9475 58.9339C57.0918 56.6196 55.8891 54.4414 55.4768 52.6036C55.3049 51.8208 55.2706 51.1401 55.3737 50.5275C55.4424 49.983 55.6486 49.5065 55.9235 49.0981C56.5764 48.1792 57.676 47.6006 58.9475 47.6006C60.2189 47.6006 61.3529 48.1451 61.9714 49.0981C62.2463 49.5065 62.4525 49.983 62.5213 50.5275C62.6243 51.1401 62.59 51.8549 62.4182 52.6036C62.0058 54.4074 60.8031 56.5856 58.9475 58.9339V58.9339ZM72.6584 60.5335C72.4179 62.3033 71.2152 63.8348 69.5314 64.5155C68.7067 64.8559 67.8132 64.958 66.9198 64.8559C66.0607 64.7538 65.2016 64.4815 64.3082 63.971C63.0711 63.2903 61.834 62.2352 60.3907 60.6697C62.6587 57.9129 64.0332 55.3944 64.5487 53.1481C64.7892 52.0931 64.8236 51.1401 64.7205 50.2553C64.5831 49.4044 64.2738 48.6216 63.7927 47.9409C62.7274 46.4094 60.9405 45.5245 58.9475 45.5245C56.9544 45.5245 55.1675 46.4434 54.1022 47.9409C53.6211 48.6216 53.3119 49.4044 53.1744 50.2553C53.037 51.1401 53.0713 52.1271 53.3462 53.1481C53.8617 55.3944 55.2706 57.9469 57.5042 60.7037C56.0953 62.2693 54.8239 63.3243 53.5868 64.005C52.6933 64.5155 51.8342 64.7878 50.9752 64.8899C50.0474 64.992 49.1539 64.8559 48.3635 64.5495C46.6797 63.8689 45.477 62.3373 45.2365 60.5676C45.1334 59.7167 45.2021 58.8659 45.5458 57.9129C45.6488 57.5726 45.8207 57.2322 45.9925 56.8238C46.233 56.2793 46.5079 55.7007 46.7828 55.1221L46.8172 55.0541C49.1883 49.983 51.7312 44.8098 54.3771 39.7728L54.4802 39.5686C54.7551 39.0581 55.03 38.5135 55.3049 38.003C55.5799 37.4585 55.8891 36.9479 56.2671 36.5055C56.9888 35.6887 57.9509 35.2462 59.0162 35.2462C60.0815 35.2462 61.0436 35.6887 61.7653 36.5055C62.1433 36.9479 62.4525 37.4585 62.7274 38.003C63.0023 38.5135 63.2772 39.0581 63.5522 39.5686L63.6552 39.7728C66.2669 44.8438 68.8098 50.017 71.1808 55.0881V55.1221C71.4557 55.6667 71.6963 56.2793 71.9712 56.8238C72.143 57.2322 72.3148 57.5726 72.4179 57.9129C72.6928 58.7978 72.7959 59.6486 72.6584 60.5335V60.5335Z" fill="#080808" fill-opacity="0.9"/>
</svg>
